HIERARCHY
ROOT HipCenter
{
	OFFSET 0 0 0
	CHANNELS 6 Xposition Yposition Zposition Xrotation Yrotation Zrotation 
	JOINT HipCenter2
	{
		OFFSET 0 0 0
		CHANNELS 3 Xrotation Yrotation Zrotation 
		JOINT Spine
		{
			OFFSET 0 6.19 0
			CHANNELS 3 Xrotation Yrotation Zrotation 
			JOINT ShoulderCenter
			{
				OFFSET 0 30.92 0
				CHANNELS 3 Xrotation Yrotation Zrotation 
				JOINT CollarLeft
				{
					OFFSET 0 0 0
					CHANNELS 3 Xrotation Yrotation Zrotation 
					JOINT ShoulderLeft
					{
						OFFSET 17.1 0 0
						CHANNELS 3 Xrotation Yrotation Zrotation 
						JOINT ElbowLeft
						{
							OFFSET 21.49 0 0
							CHANNELS 3 Xrotation Yrotation Zrotation 
							JOINT WristLeft
							{
								OFFSET 20.28 0 0
								CHANNELS 3 Xrotation Yrotation Zrotation 
								End Site
								{
									OFFSET 6.79 0 0
								}
							}
						}
					}
				}
				JOINT Neck
				{
					OFFSET 0 0 0
					CHANNELS 3 Xrotation Yrotation Zrotation 
					JOINT Head
					{
						OFFSET 0 22.07 0
						CHANNELS 3 Xrotation Yrotation Zrotation 
						End Site
						{
							OFFSET 0 0 0
						}
					}
				}
				JOINT CollarRight
				{
					OFFSET 0 0 0
					CHANNELS 3 Xrotation Yrotation Zrotation 
					JOINT ShoulderRight
					{
						OFFSET -16.08 0 0
						CHANNELS 3 Xrotation Yrotation Zrotation 
						JOINT ElbowRight
						{
							OFFSET -24.64 0 0
							CHANNELS 3 Xrotation Yrotation Zrotation 
							JOINT WristRight
							{
								OFFSET -23.4 0 0
								CHANNELS 3 Xrotation Yrotation Zrotation 
								End Site
								{
									OFFSET -11.41 0 0
								}
							}
						}
					}
				}
			}
		}
	}
	JOINT HipLeft
	{
		OFFSET 7.46 0 0
		CHANNELS 3 Xrotation Yrotation Zrotation 
		JOINT KneeLeft
		{
			OFFSET 0 -51.41 0
			CHANNELS 3 Xrotation Yrotation Zrotation 
			JOINT AnkleLeft
			{
				OFFSET 0 -43.69 0
				CHANNELS 3 Xrotation Yrotation Zrotation 
				End Site
				{
					OFFSET 0 0 4.81
				}
			}
		}
	}
	JOINT HipRight
	{
		OFFSET -7.99 0 0
		CHANNELS 3 Xrotation Yrotation Zrotation 
		JOINT KneeRight
		{
			OFFSET 0 -51.03 0
			CHANNELS 3 Xrotation Yrotation Zrotation 
			JOINT AnkleRight
			{
				OFFSET 0 -37.39 0
				CHANNELS 3 Xrotation Yrotation Zrotation 
				End Site
				{
					OFFSET 0 0 5.32
				}
			}
		}
	}
}
MOTION
Frames: 35
Frame Time: 0.0333333
-65.76 107.12 46.94 0 4.8549 0 -27.632 0 4.4136 30 0 0 -0.6006 0.0157 -0.321 0 0 0 13.3117 -33.1651 -52.4447 0 0 25.3888 -12.202 0 3.2973 3.2826 4.83 -11.0712 0 0 0 0 0 0 7.0898 44.9419 52.2015 0 0 -21.9062 -11.0352 0 0.4974 -11.1047 -0.0645 6.6851 5.083 -0.0314 -0.3646 0 0 0 -1.7645 -0.1385 -1.9238 7.8798 0.2133 5.7426 0 0 0 
-67.11 108.97 47.31 0 4.863 0 -27.9725 0 4.6476 30 0 0 -0.8656 0.023 -0.2928 0 0 0 14.5473 -31.9562 -50.7062 0 0 28.4493 -15.2923 0 2.8534 3.7533 5.0684 -11.3511 0 0 0 0 0 0 10.9211 49.5865 39.9836 4.9888 -1.1281 -12.7092 -2.0054 0 4.7308 -10.949 -0.0534 6.4374 4.6275 0.0275 0.2921 0 0 0 -1.8714 -0.1338 -1.8825 8.0751 0.1936 5.7413 0 0 0 
-67.58 109.14 47.46 0 5.0889 0 -28.1964 0 4.8522 30 0 0 -1.0491 0.0299 -0.3182 0 0 0 16.6287 -29.7392 -47.6413 0 0 30.576 -14.3272 0 -3.7919 4.2927 5.3224 -11.6132 0 0 0 0 0 0 13.6825 48.7807 35.0933 7.3442 -1.8261 -13.8874 -5.854 0 6.0001 -10.9913 -0.0557 6.4267 4.5046 0.0461 0.4795 0 0 0 -1.9339 -0.1335 -1.8933 8.0849 0.2021 6.0231 0 0 0 
-66.94 109.18 46.91 0 5.2169 0 -28.1288 0 4.7043 30 0 0 -1.2289 0.0304 -0.303 0 0 0 18.1072 -28.2631 -44.9504 0 0 30.6945 -15.388 0 1.424 4.137 5.223 -11.4836 0 0 0 0 0 0 14.7358 42.7529 37.7961 0 0 -25.05 -14.181 0 -4.619 -11.1012 -0.0629 6.5372 4.6184 0.0415 0.4409 0 0 0 -2.0611 -0.1237 -1.7831 8.357 0.1723 5.9855 0 0 0 
-66.76 110.2 47.03 0 5.4174 0 -28.4058 0 4.6814 30 0 0 -1.4256 0.0393 -0.3292 0 0 0 21.6633 -23.7076 -38.2967 0 0 31.0814 -6.7426 0 6.7287 4.3209 5.2163 -11.3739 0 0 0 0 0 0 19.4721 40.8129 27.8191 0 0 -23.1324 -0.7377 0 -5.196 -11.1572 -0.0661 6.5339 4.5588 0.0604 0.634 0 0 0 -2.1831 -0.1231 -1.8009 8.4231 0.1727 6.2488 0 0 0 
-66.9 110.75 47.16 0 5.5344 0 -29.838 0 5.2054 30 0 0 -1.5506 0.055 -0.4908 0 0 0 23.0273 -21.4559 -35.6521 0 0 31.1607 -9.449 0 -0.5129 14.3322 9.0879 -13.0216 0 0 0 0 0 0 19.8115 39.6677 27.7655 0 0 -26.6862 6.9672 0 -14.396 -11.2359 -0.0708 6.5595 4.6015 0.0683 0.7225 0 0 0 -2.3364 -0.118 -1.762 8.6613 0.152 6.4776 0 0 0 
-66.96 111.97 47.57 0 5.8009 0 -29.6458 0 5.0293 30 0 0 -1.0226 0.0254 -0.7876 0 0 0 24.2916 -19.2073 -32.8356 0 0 28.6199 -4.088 0 11.953 13.8696 8.7649 -12.7909 0 0 0 0 0 0 22.2534 38.1181 22.1758 0 0 -26.5311 -3.1677 0 -2.6622 -11.2897 -0.0733 6.5067 4.5625 0.0887 0.9316 0 0 0 -2.4177 -0.1164 -1.7563 8.8197 0.1385 6.6911 0 0 0 
-67.35 111.94 47.62 0 6.2919 0 -29.5305 0 4.8504 30 0 0 -0.7237 0.0166 -0.9032 0 0 0 25.8496 -16.3367 -28.3358 0 0 27.9602 3.4343 0 10.5089 13.4399 8.5443 -12.6794 0 0 0 0 0 0 23.6417 36.963 18.8704 0 0 -25.4787 5.559 0 -26.9803 -11.292 -0.0709 6.2815 4.3157 0.1481 1.4879 0 0 0 -2.47 -0.1165 -1.7702 8.874 0.14 7.0865 0 0 0 
-67.01 112.47 47.59 0 6.5646 0 -29.4783 0 4.7082 30 0 0 -0.5412 0.0091 -0.8805 0 0 0 26.1569 -15.3426 -27.973 0 0 30.4421 3.5751 0 14.0576 13.1864 8.2896 -12.4315 0 0 0 0 0 0 26.3107 34.1522 11.9704 0 0 -20.2106 4.2551 0 -3.3105 -11.2988 -0.0702 6.1913 4.2314 0.1772 1.7531 0 0 0 -2.4623 -0.1118 -1.6969 8.8839 0.1412 7.209 0 0 0 
-66.55 111.72 47.22 0 6.8715 0 -29.4391 0 4.5755 30 0 0 -0.3794 0.0047 -0.8357 0 0 0 26.8493 -13.5978 -25.9789 0 0 29.8553 -2.1647 0 10.993 12.9821 8.1087 -12.2624 0 0 0 0 0 0 26.8838 33.588 10.3001 0 0 -20.2448 -0.2903 0 -20.9711 -11.3679 -0.0738 6.1764 4.2359 0.1899 1.8805 0 0 0 -2.4451 -0.1214 -1.8389 8.7978 0.1634 7.7398 0 0 0 
-67 113.28 47.7 0 6.9727 0 -29.4044 0 4.5323 30 0 0 -0.2194 0.0023 -0.8944 0 0 0 27.2988 -11.9492 -25.3915 0 0 34.231 -11.4632 0 -3.7762 12.0409 7.9056 -12.3945 0 0 0 0 0 0 27.8379 32.5366 7.3997 0 0 -22.0022 -10.3513 0 -8.5484 -11.357 -0.0738 6.2256 4.2339 0.1919 1.8998 0 0 0 -2.4663 -0.1222 -1.8562 8.863 0.1594 7.9787 0 0 0 
-66.32 113.43 47.71 0 7.1716 0 -29.3673 0 4.3805 30 0 0 -0.1141 0.0008 -0.8074 0 0 0 27.7747 -10.4959 -23.8783 0 0 35.4629 -0.4141 0 6.7965 11.9638 7.8717 -12.3791 0 0 0 0 0 0 28.6127 31.02 4.9963 0 0 -21.0011 -11.6666 0 -15.3504 -11.4052 -0.0784 6.3853 4.2608 0.1812 1.802 0 0 0 -2.4369 -0.1163 -1.7592 8.7814 0.1721 8.037 0 0 0 
-66.03 112.53 47.43 0 7.3931 0 -29.3045 0 4.2476 30 0 0 -0.0683 0 -0.7452 0 0 0 28.2537 -8.9822 -21.9616 0 0 33.3398 -1.8531 0 3.6274 11.7515 7.7952 -12.3619 0 0 0 0 0 0 29.3746 30.3008 2.3093 0 0 -20.1926 -12.7066 0 -23.6825 -11.4733 -0.0842 6.5388 4.3139 0.1688 1.6951 0 0 0 -2.4474 -0.1104 -1.6732 8.7764 0.174 8.092 0 0 0 
-66.22 112.88 47.39 0 7.5058 0 -29.241 0 3.9742 30 0 0 -0.0895 -0.0001 -0.5763 0 0 0 29.7666 -2.0283 -13.1282 0 0 22.1438 2.7645 0 11.3804 11.5775 7.6226 -12.178 0 0 0 0 0 0 30.1261 28.6357 -0.4943 0 0 -21.607 -26.6998 0 -22.6264 -11.5069 -0.0872 6.6225 4.2819 0.175 1.7475 0 0 0 -2.4565 -0.1014 -1.5379 8.7388 0.1801 8.1256 0 0 0 
-66.27 113.59 47.25 0 7.5901 0 -29.3895 0 4.1142 30 0 0 0.0574 -0.0001 -0.5872 0 0 0 29.7422 -2.2501 -13.0713 0 0 23.6735 -0.9953 0 12.1882 12.4311 8.2295 -12.6956 0 0 0 0 0 0 30.5364 27.8354 -2.1642 10.3074 -2.6456 -14.2412 22.7097 0 -45.8781 -11.4399 -0.0822 6.5333 4.0792 0.2035 1.9612 0 0 0 -2.4851 -0.1011 -1.5398 8.7379 0.1859 8.3769 0 0 0 
-66.31 114.14 47.81 0 7.6702 0 -29.3764 0 4.1487 30 0 0 0.1898 0.0001 -0.5784 0 0 0 29.8313 -1.5491 -12.4332 0 0 22.6696 1.2886 0 11.8079 12.5691 8.427 -12.9214 0 0 0 0 0 0 30.7815 27.3222 -3.2147 9.6293 -2.7657 -15.8755 29.6299 0 -41.1217 -11.3878 -0.0788 6.5012 3.9748 0.2209 2.0923 0 0 0 -2.4788 -0.0982 -1.4944 8.7343 0.1876 8.431 0 0 0 
-66.61 113.18 47.35 0 7.9293 0 -29.3892 0 4.1088 30 0 0 0.3322 0.0009 -0.5832 0 0 0 29.8411 -1.5055 -12.0466 0 0 23.2315 -1.3165 0 9.9244 12.797 8.487 -12.9001 0 0 0 0 0 0 31.1076 26.5242 -4.6968 8.7071 -2.2071 -14.1155 22.9724 0 -57.9532 -11.3944 -0.078 6.4033 3.8269 0.2652 2.4501 0 0 0 -2.4585 -0.0985 -1.4948 8.58 0.2167 8.676 0 0 0 
-67.06 114.4 47.68 0 8.1791 0 -29.3414 0 4.0107 30 0 0 0.4111 0.0005 -0.5698 0 0 0 29.8696 -1.2659 -11.7657 0 0 23.3435 1.1825 0 9.3987 12.6936 8.0395 -12.2926 0 0 0 0 0 0 31.0981 26.2741 -4.7027 9.0648 -2.2754 -13.9741 37.0521 0 -54.8412 -11.4838 -0.0834 6.4303 3.8801 0.2506 2.3363 0 0 0 -2.4362 -0.0939 -1.4212 8.4689 0.2387 8.8593 0 0 0 
-67.34 114.43 47.67 0 8.1432 0 -29.2752 0 4.0621 30 0 0 0.4503 0.0005 -0.5507 0 0 0 29.8835 -1.1448 -11.6165 0 0 23.437 0.7837 0 8.4893 12.9229 8.0507 -12.2047 0 0 0 0 0 0 31.0577 25.9034 -4.597 9.6405 -2.5067 -14.4389 33.6793 0 -53.6753 -11.4111 -0.0789 6.4017 3.7483 0.265 2.4173 0 0 0 -2.4468 -0.0956 -1.4485 8.5042 0.2381 9.0419 0 0 0 
-67.26 114.19 47.66 0 8.2352 0 -29.2079 0 4.0535 30 0 0 0.4172 0.0005 -0.5347 0 0 0 29.8892 -1.1215 -11.2841 0 0 23.6197 0.1369 0 6.8541 12.9985 7.8847 -11.9284 0 0 0 0 0 0 31.0634 25.7579 -4.6487 9.8728 -2.4814 -13.9695 36.8579 0 -57.1574 -11.4291 -0.0798 6.3881 3.6949 0.2847 2.5751 0 0 0 -2.4513 -0.0955 -1.4481 8.5173 0.2412 9.2362 0 0 0 
-67.37 114.45 47.63 0 8.214 0 -29.112 0 4.1103 30 0 0 0.3105 0.0001 -0.5216 0 0 0 29.8603 -1.4452 -11.0383 0 0 23.9979 -0.7011 0 5.5492 12.7935 7.9465 -12.1104 0 0 0 0 0 0 31.1063 25.7993 -4.8276 10.1815 -2.4884 -13.5905 37.6123 0 -57.0697 -11.4811 -0.0839 6.4827 3.6652 0.2833 2.55 0 0 0 -2.5017 -0.085 -1.2967 8.5236 0.239 9.1945 0 0 0 
-67.11 113.38 47.6 0 8.2705 0 -29.1615 0 4.1618 30 0 0 0.2223 0.0005 -0.5218 0 0 0 29.8842 -1.1813 -11.1939 0 0 23.9639 0.0061 0 5.5234 12.9677 8.001 -12.1119 0 0 0 0 0 0 31.1619 25.6576 -5.0991 9.682 -2.3106 -13.2957 43.8223 0 -61.7094 -11.5046 -0.0859 6.5367 3.64 0.274 2.457 0 0 0 -2.5418 -0.0842 -1.2917 8.63 0.2218 9.1942 0 0 0 
-67.57 113.8 47.18 0 8.5019 0 -29.1566 0 4.0159 30 0 0 0.1352 0.0008 -0.5165 0 0 0 29.9027 -0.9735 -11.4206 0 0 23.8498 0.7821 0 5.8298 12.986 7.9657 -12.0523 0 0 0 0 0 0 31.1285 25.5875 -4.9667 9.7753 -2.3537 -13.4075 47.2477 0 -63.8621 -11.5974 -0.0943 6.754 3.771 0.2358 2.1598 0 0 0 -2.5569 -0.067 -1.0299 8.5896 0.2233 8.9945 0 0 0 
-68 113.95 47.49 0 8.5657 0 -29.0949 0 3.9404 30 0 0 -0.0268 -0.0002 -0.4745 0 0 0 29.7125 -2.1306 -15.3683 0 0 28.0493 1.2748 0 5.6182 12.8528 7.9003 -12.016 0 0 0 0 0 0 31.2014 25.8547 -5.2308 9.9881 -2.3282 -12.9889 51.6205 0 -65.9875 -11.6557 -0.0995 6.8781 3.845 0.2135 1.9787 0 0 0 -2.5575 -0.0612 -0.9409 8.5014 0.2348 8.9014 0 0 0 
-67.88 112.88 47.17 0 8.4413 0 -29.1114 0 4.0848 30 0 0 -0.164 -0.0006 -0.4363 0 0 0 29.8716 -1.1542 -12.6991 0 0 24.1103 1.4227 0 0.9076 12.9828 8.1681 -12.3487 0 0 0 0 0 0 31.2438 26.0413 -5.3749 9.8753 -2.2718 -12.8279 55.9843 0 -68.8762 -11.6768 -0.0997 6.805 4.0161 0.2058 1.9628 0 0 0 -2.6278 -0.0578 -0.8968 8.5105 0.2352 8.9726 0 0 0 
-67.76 113.45 47.21 0 8.4452 0 -29.1068 0 4.0779 30 0 0 -0.2916 -0.0015 -0.461 0 0 0 29.8559 -1.3224 -12.4398 0 0 24.034 -2.2572 0 6.8501 12.8301 8.1694 -12.4206 0 0 0 0 0 0 31.31 26.3083 -5.6014 8.2865 -1.8811 -12.701 64.7721 0 -59.4114 -11.7091 -0.1026 6.8676 4.0195 0.2068 1.9732 0 0 0 -2.6345 -0.0554 -0.8606 8.5222 0.2332 8.9651 0 0 0 
-68.13 113.97 47.7 0 8.7123 0 -29.1362 0 3.947 30 0 0 -0.4123 -0.0028 -0.4122 0 0 0 29.6896 -2.5532 -13.8611 0 0 25.3613 -2.4051 0 7.394 12.8829 7.9922 -12.1372 0 0 0 0 0 0 31.3072 26.6688 -5.5111 7.4 -1.6646 -12.6077 62.9874 0 -61.1375 -11.8848 -0.1155 7.0122 4.135 0.1945 1.8932 0 0 0 -2.6825 -0.0492 -0.7689 8.5536 0.2279 8.9538 0 0 0 
-68.21 113.65 47.69 0 8.6663 0 -29.1045 0 3.8826 30 0 0 -0.54 -0.0034 -0.435 0 0 0 29.7647 -2.337 -11.4976 0 0 22.991 -3.9326 0 7.8381 12.805 7.9548 -12.1176 0 0 0 0 0 0 31.2975 27.3369 -5.3319 7.8323 -1.6782 -12.0192 63.7347 0 -65.0719 -11.936 -0.1209 7.1482 4.1834 0.1842 1.8075 0 0 0 -2.7187 -0.0503 -0.7904 8.5646 0.2317 9.1694 0 0 0 
-68.17 114.11 47.79 0 8.596 0 -29.0429 0 3.7281 30 0 0 -0.761 -0.0057 -0.3938 0 0 0 29.7614 -2.3793 -11.4527 0 0 22.8733 -3.7523 0 9.1079 12.2374 7.6026 -11.8481 0 0 0 0 0 0 31.1971 28.3726 -4.733 9.6503 -2.1484 -12.433 -7.0895 0 -66.37 -12.0446 -0.1301 7.2828 4.3055 0.1742 1.7468 0 0 0 -2.8012 -0.045 -0.7155 8.6703 0.2144 9.1559 0 0 0 
-67.7 112.91 47.14 0 8.5829 0 -29.0271 0 3.7294 30 0 0 -0.919 -0.0071 -0.4177 0 0 0 29.7572 -2.514 -11.032 0 0 22.7328 -0.0911 0 9.6598 12.2387 7.5813 -11.8154 0 0 0 0 0 0 31.0854 28.586 -4.2584 9.8376 -2.0995 -11.9291 -5.1711 0 -62.9691 -12.1601 -0.1384 7.3318 4.5295 0.1764 1.8409 0 0 0 -2.8333 -0.0465 -0.7423 8.6503 0.218 9.1735 0 0 0 
-67.93 112.65 47.18 0 8.34 0 -29.0286 0 3.7616 30 0 0 -1.0536 -0.0053 -0.4342 0 0 0 29.7359 -2.9362 -10.2753 0 0 22.4634 1.413 0 9.7211 12.4169 7.5919 -11.7525 0 0 0 0 0 0 30.7282 29.7458 -2.7415 10.5838 -2.3913 -12.5879 24.623 0 -62.699 -12.2963 -0.1502 7.4822 4.8958 0.1464 1.6381 0 0 0 -2.9112 -0.048 -0.7757 8.789 0.1974 9.2579 0 0 0 
-67.6 113.08 47.3 0 7.8553 0 -28.9255 0 3.8941 30 0 0 -1.2054 -0.0015 -0.4162 0 0 0 29.685 -3.776 -9.5348 0 0 23.3195 2.2655 0 7.6704 12.4226 7.888 -12.192 0 0 0 0 0 0 30.2942 30.283 -1.0872 9.9192 -1.8219 -10.3039 31.9097 0 -58.4191 -12.5466 -0.1708 7.6725 5.5091 0.1078 1.3727 0 0 0 -3.1122 -0.0389 -0.6463 8.9846 0.1616 9.0439 0 0 0 
-67.06 113.46 47.46 0 7.4189 0 -28.8403 0 3.9258 30 0 0 -1.3542 0.001 -0.3893 0 0 0 29.6402 -4.8393 -8.4982 0 0 23.1973 2.1069 0 6.9901 11.8994 7.7484 -12.2219 0 0 0 0 0 0 29.7008 31.0191 1.0782 11.6625 -2.2981 -10.9939 26.2254 0 -52.4575 -12.7837 -0.1918 7.8801 6.1558 0.0694 1.032 0 0 0 -3.187 -0.0378 -0.6346 9.0544 0.15 9.0159 0 0 0 
-67.63 113.95 47.97 0 7.0599 0 -28.6784 0 4.023 30 0 0 -1.4292 0.0046 -0.3244 0 0 0 29.3101 -9.482 -8.304 0 0 23.676 -1.1598 0 7.144 11.5146 7.6312 -12.2204 0 0 0 0 0 0 28.8948 31.3902 3.9318 11.3583 -2.0011 -9.8613 9.091 0 -32.1781 -12.962 -0.2083 8.0426 6.6314 0.0414 0.7027 0 0 0 -3.1786 -0.0397 -0.6662 8.9076 0.1735 9.0221 0 0 0 
-67.72 114.22 47.96 0 6.7526 0 -28.6128 0 4.1216 30 0 0 -1.5092 0.0096 -0.2785 0 0 0 29.2546 -10.5289 -8.0764 0 0 24.405 0.8965 0 8.071 11.2835 7.6906 -12.4207 0 0 0 0 0 0 28.2516 31.5641 6.1806 11.0418 -1.9359 -9.8217 27.4508 0 -27.8264 -13.1682 -0.2265 8.1774 7.1483 0.0229 0.4593 0 0 0 -3.1039 -0.043 -0.7143 8.6521 0.217 9.1455 0 0 0 
